HIERARCHY
ROOT Hips
{
	OFFSET 0.000000 0.000000 0.000000
	CHANNELS 6 Xposition Yposition Zposition Zrotation Yrotation Xrotation 
	JOINT LHipJoint
	{
		OFFSET 0.000000 0.000000 0.000000
		CHANNELS 3 Zrotation Yrotation Xrotation
		JOINT LeftUpLeg
		{
			OFFSET 1.363060 -1.794630 0.839290
			CHANNELS 3 Zrotation Yrotation Xrotation
			JOINT LeftLeg
			{
				OFFSET 2.448110 -6.726130 0.000000
				CHANNELS 3 Zrotation Yrotation Xrotation
				JOINT LeftFoot
				{
					OFFSET 2.562200 -7.039590 0.000000
					CHANNELS 3 Zrotation Yrotation Xrotation
					JOINT LeftToeBase
					{
						OFFSET 0.157640 -0.433110 2.322550
						CHANNELS 3 Zrotation Yrotation Xrotation
						End Site
						{
							OFFSET 0.000000 0.000000 0.000000
						}
					}
				}
			}
		}
	}
	JOINT RHipJoint
	{
		OFFSET 0.000000 0.000000 0.000000
		CHANNELS 3 Zrotation Yrotation Xrotation
		JOINT RightUpLeg
		{
			OFFSET -1.305520 -1.794630 0.839290
			CHANNELS 3 Zrotation Yrotation Xrotation
			JOINT RightLeg
			{
				OFFSET -2.542530 -6.985550 0.000000
				CHANNELS 3 Zrotation Yrotation Xrotation
				JOINT RightFoot
				{
					OFFSET -2.568260 -7.056230 0.000000
					CHANNELS 3 Zrotation Yrotation Xrotation
					JOINT RightToeBase
					{
						OFFSET -0.164730 -0.452590 2.363150
						CHANNELS 3 Zrotation Yrotation Xrotation
						End Site
						{
							OFFSET 0.000000 0.000000 0.000000
						}
					}
				}
			}
		}
	}
	JOINT LowerBack
	{
		OFFSET 0.000000 0.000000 0.000000
		CHANNELS 3 Zrotation Yrotation Xrotation
		JOINT Spine
		{
			OFFSET 0.028270 2.035590 -0.193380
			CHANNELS 3 Zrotation Yrotation Xrotation
			JOINT Spine1
			{
				OFFSET 0.056720 2.048850 -0.042750
				CHANNELS 3 Zrotation Yrotation Xrotation
				JOINT Neck
				{
					OFFSET 0.000000 0.000000 0.000000
					CHANNELS 3 Zrotation Yrotation Xrotation
					JOINT Neck1
					{
						OFFSET -0.054170 1.746240 0.172020
						CHANNELS 3 Zrotation Yrotation Xrotation
						JOINT Head
						{
							OFFSET 0.104070 1.761360 -0.123970
							CHANNELS 3 Zrotation Yrotation Xrotation
							End Site
							{
								OFFSET 0.000000 0.000000 0.000000
							}
						}
					}
				}
				JOINT LeftShoulder
				{
					OFFSET 0.000000 0.000000 0.000000
					CHANNELS 3 Zrotation Yrotation Xrotation
					JOINT LeftArm
					{
						OFFSET 3.362410 1.200890 -0.311210
						CHANNELS 3 Zrotation Yrotation Xrotation
						JOINT LeftForeArm
						{
							OFFSET 4.983000 -0.000000 -0.000000
							CHANNELS 3 Zrotation Yrotation Xrotation
							JOINT LeftHand
							{
								OFFSET 3.483560 -0.000000 -0.000000
								CHANNELS 3 Zrotation Yrotation Xrotation
								JOINT LeftFingerBase
								{
									OFFSET 0.000000 0.000000 0.000000
									CHANNELS 3 Zrotation Yrotation Xrotation
									JOINT LeftHandIndex1
									{
										OFFSET 0.715260 -0.000000 -0.000000
										CHANNELS 3 Zrotation Yrotation Xrotation
										End Site
										{
											OFFSET 0.000000 0.000000 0.000000
										}
									}
								}
								JOINT LThumb
								{
									OFFSET 0.000000 0.000000 0.000000
									CHANNELS 3 Zrotation Yrotation Xrotation
									End Site
									{
										OFFSET 0.000000 0.000000 0.000000
									}
								}
							}
						}
					}
				}
				JOINT RightShoulder
				{
					OFFSET 0.000000 0.000000 0.000000
					CHANNELS 3 Zrotation Yrotation Xrotation
					JOINT RightArm
					{
						OFFSET -3.136600 1.374050 -0.404650
						CHANNELS 3 Zrotation Yrotation Xrotation
						JOINT RightForeArm
						{
							OFFSET -5.241900 -0.000000 -0.000000
							CHANNELS 3 Zrotation Yrotation Xrotation
							JOINT RightHand
							{
								OFFSET -3.444170 -0.000000 -0.000000
								CHANNELS 3 Zrotation Yrotation Xrotation
								JOINT RightFingerBase
								{
									OFFSET 0.000000 0.000000 0.000000
									CHANNELS 3 Zrotation Yrotation Xrotation
									JOINT RightHandIndex1
									{
										OFFSET -0.622530 -0.000000 -0.000000
										CHANNELS 3 Zrotation Yrotation Xrotation
										End Site
										{
											OFFSET 0.000000 0.000000 0.000000
										}
									}
								}
								JOINT RThumb
								{
									OFFSET 0.000000 0.000000 0.000000
									CHANNELS 3 Zrotation Yrotation Xrotation
									End Site
									{
										OFFSET 0.000000 0.000000 0.000000
									}
								}
							}
						}
					}
				}
			}
		}
	}
}
MOTION
Frames: 6
Frame Time: 0.008333
-10.373583 17.332060 1.307999 -110.005579 81.165372 -106.631249 17.549599 2.070803 -3.593340 -21.524586 -2.173051 -21.144466 3.418371 20.533955 58.878097 -1.383033 7.284030 -6.888376 12.554800 -18.615500 -67.736800 -22.979463 -4.683879 -3.565573 54.012125 10.905763 7.374566 14.877875 -1.335672 3.003301 -2.311077 -7.822378 -29.399861 -0.025000 -1.020100 2.804100 3.370085 -0.321902 15.146203 2.271616 0.681249 -5.747194 4.706603 0.796235 -19.558121 -1.916235 -2.348582 -17.109025 1.128706 -1.916408 17.725867 -1.565400 -0.593200 14.404900 8.922464 -8.180222 0.763652 -94.691311 21.528949 2.957684 19.868420 -33.305630 -7.434164 -0.017008 2.484675 9.258708 30.692817 32.645742 16.658300 -7.125000 0.000000 0.000000 0.290500 63.591200 0.131000 -8.666634 7.372469 1.431632 70.831500 -14.629359 51.559416 -28.422275 40.383687 -8.426862 0.964756 -2.180511 -10.462141 -19.666227 -19.150865 6.024200 7.125000 0.000000 0.000000 7.256800 -47.485300 -0.447300 
-10.130439 17.320869 1.309865 -111.702555 81.444603 -108.514445 17.529945 1.687760 -3.678826 -21.851916 -3.407779 -22.612081 2.282288 20.637002 56.221627 -0.812066 5.546027 -8.755737 12.369900 -18.542700 -67.156500 -23.104336 -4.788579 -3.637016 54.088116 10.429277 9.094454 14.940488 -0.689933 2.118902 -2.391143 -8.031584 -29.854957 -0.027700 -1.074400 2.953400 3.106157 -0.304651 15.321989 2.245209 0.638975 -5.664248 4.724193 0.761617 -19.283227 -1.959096 -2.283665 -17.183097 0.997114 -1.796464 17.742035 -1.627500 -0.564300 14.441000 8.962566 -8.151393 0.780935 -95.019925 21.419690 3.090153 20.173562 -33.646017 -7.558628 -0.037336 2.498623 9.357082 30.285774 33.004494 16.590100 -7.125000 0.000000 0.000000 -0.351500 63.860800 -0.160700 -8.704809 7.296877 1.406526 70.597898 -13.316766 52.161187 -28.238400 40.235235 -8.318025 0.950303 -2.176397 -10.089574 -19.588821 -19.038084 5.964900 7.125000 0.000000 0.000000 7.303900 -47.370700 -0.429500 
-9.861509 17.297169 1.300758 -114.617744 81.979652 -111.689094 17.447208 1.353111 -3.724319 -22.525710 -4.774030 -23.551159 0.721472 20.462985 52.582457 -0.749287 5.720932 -9.394554 12.557000 -18.616300 -67.743700 -23.190835 -4.958398 -3.763029 53.672313 9.348838 10.893447 14.939866 -0.012334 1.262170 -2.402913 -8.190862 -29.843507 -0.007600 -0.564300 1.550600 2.708193 -0.272776 15.203607 2.167678 0.554592 -5.516243 4.515562 0.670376 -18.599308 -1.577468 -2.111399 -17.289335 0.670120 -1.681253 17.599575 -1.905600 -0.508300 14.356400 9.025926 -8.100314 0.801682 -95.127790 21.253320 3.724697 20.408905 -33.917091 -7.616309 -0.063903 2.506958 9.172752 29.737033 32.520782 16.040300 -7.125000 0.000000 0.000000 -0.811000 63.208900 -0.358400 -8.767055 7.197164 1.387457 70.501905 -11.995165 52.640265 -28.116223 40.175512 -8.240691 0.930679 -2.174123 -9.683300 -19.510309 -18.768506 5.849800 7.125000 0.000000 0.000000 7.317300 -47.092600 -0.379800 
-9.608161 17.277528 1.297466 -113.949848 81.724239 -111.176270 17.420005 1.060572 -3.784190 -22.062011 -6.033935 -24.560333 -0.929012 19.954995 48.290554 -0.861600 6.504808 -9.760502 12.678200 -18.662900 -68.122900 -23.348650 -5.028424 -3.887376 54.246208 8.616357 12.284052 15.032480 0.390126 0.720926 -2.485790 -8.305623 -30.164584 -0.000500 -0.138200 0.379800 3.133606 -0.256708 15.171782 2.170887 0.619645 -5.394033 4.365796 0.622843 -18.072279 -1.609038 -1.940580 -17.512781 0.565002 -1.436417 17.461478 -1.938100 -0.443600 14.310500 9.098025 -8.074612 0.811199 -95.380917 20.870259 4.055431 20.373327 -33.906996 -7.548961 -0.046750 2.518114 9.137675 29.491606 31.444108 15.378100 -7.125000 0.000000 0.000000 -0.679400 61.992600 -0.280800 -8.802649 7.098405 1.370231 70.258380 -10.697029 53.307916 -28.122062 40.197352 -8.208220 0.954188 -2.156849 -9.700542 -19.005747 -18.943235 5.765400 7.125000 0.000000 0.000000 7.817000 -47.228700 -0.432400 
-9.401883 17.272810 1.305805 -110.312423 80.591980 -107.458047 17.466762 0.750118 -3.890475 -20.198031 -7.240913 -25.870829 -2.509759 19.178818 43.584455 -0.924305 6.977735 -10.178774 12.561100 -18.617900 -67.756700 -23.581445 -4.935854 -3.932839 56.012030 8.855553 12.976288 15.255654 0.398062 0.652691 -2.657311 -8.652473 -30.974465 -0.002800 0.340500 -0.935500 4.380542 -0.307408 15.582273 2.281037 0.820501 -5.399845 4.291524 0.640485 -18.286643 -1.612410 -1.744595 -17.562492 0.455932 -1.148830 17.410833 -1.961100 -0.349500 14.296200 9.146366 -8.108011 0.818165 -95.801927 20.718371 3.893584 20.392085 -33.916267 -7.518610 -0.032619 2.531635 9.447687 29.115353 30.852768 14.881200 -7.125000 0.000000 0.000000 -0.898700 61.262300 -0.355900 -8.752356 7.032865 1.339657 69.907322 -9.620798 54.218326 -28.289330 40.289750 -8.236103 1.021662 -2.125424 -9.945795 -18.095328 -19.734896 5.761400 7.125000 0.000000 0.000000 8.835200 -47.952700 -0.648400 
-9.194288 17.265788 1.309206 -107.797776 79.617380 -104.842318 17.462809 0.435393 -3.962087 -18.353866 -8.672393 -26.723297 -4.266746 18.036498 38.243285 -1.299260 8.460096 -10.228833 12.535100 -18.607800 -67.675200 -23.761354 -4.846646 -3.963077 57.468742 9.032953 13.530293 15.426260 0.340705 0.746577 -2.840308 -8.598708 -31.816256 -0.000400 0.128600 -0.353400 5.475884 -0.325531 16.088977 2.342862 1.079551 -5.456925 4.149556 0.690883 -18.740541 -2.065433 -1.751017 -17.649109 0.452313 -1.006316 17.418119 -1.832100 -0.363500 14.337800 9.141939 -8.162705 0.829606 -96.124011 20.780784 3.760591 20.456268 -33.951562 -7.530021 -0.038149 2.540353 10.022140 28.672146 31.203077 14.806400 -7.125000 0.000000 0.000000 -1.537400 61.530300 -0.618700 -8.703883 6.995339 1.308196 69.707884 -8.874215 54.836929 -28.523154 40.470051 -8.339180 1.046944 -2.121684 -9.786454 -18.014740 -20.315342 5.930300 7.125000 0.000000 0.000000 9.045600 -48.538600 -0.795500 
